# This file uses centimeters as units for non-parametric coordinates.

mtllib base.mtl
g default
v -0.758931 -0.010144 0.758931
v 0.758931 -0.010144 0.758931
v -0.758931 -0.010144 -0.758931
v 0.758931 -0.010144 -0.758931
v -0.758931 2.977897 0.758931
v -0.748765 3.015840 0.748765
v -0.720989 3.043616 0.720989
v -0.683046 3.053782 0.683046
v 0.683046 3.053782 0.683046
v 0.720989 3.043616 0.720989
v 0.748765 3.015840 0.748765
v 0.758931 2.977897 0.758931
v -0.683046 3.053782 -0.683046
v -0.720989 3.043616 -0.720989
v -0.748765 3.015840 -0.748765
v -0.758931 2.977897 -0.758931
v 0.683046 3.053782 -0.683046
v 0.720989 3.043616 -0.720989
v 0.748765 3.015840 -0.748765
v 0.758931 2.977897 -0.758931
v 0.000000 -0.010144 0.758931
v 0.000000 2.977897 0.758931
v 0.000000 3.015840 0.748765
v 0.000000 3.043616 0.720989
v 0.000000 3.053782 0.683046
v 0.000000 3.053782 -0.683046
v 0.000000 3.043616 -0.720989
v 0.000000 3.015840 -0.748765
v 0.000000 2.977897 -0.758931
v 0.000000 -0.010144 -0.758931
v -0.758931 -0.010144 0.000000
v -0.758931 2.977897 0.000000
v -0.748765 3.015840 0.000000
v -0.720989 3.043616 0.000000
v -0.683046 3.053782 0.000000
v 0.000000 3.053782 0.000000
v 0.683046 3.053782 0.000000
v 0.720989 3.043616 0.000000
v 0.748765 3.015840 0.000000
v 0.758931 2.977897 0.000000
v 0.758931 -0.010144 0.000000
vt 0.332836 0.723714
vt 0.330786 0.725769
vt 0.330663 0.687659
vt 0.332738 0.687658
vt 0.103106 0.356586
vt 0.102748 0.354545
vt 0.139752 0.355715
vt 0.139908 0.357787
vt 0.102400 0.352522
vt 0.139594 0.353612
vt 0.089360 0.199193
vt 0.132625 0.195101
vt 0.368892 0.723721
vt 0.368815 0.687644
vt 0.404922 0.687585
vt 0.404885 0.723570
vt 0.325448 0.371628
vt 0.286898 0.363337
vt 0.304845 0.205256
vt 0.345604 0.211205
vt 0.212415 0.353785
vt 0.220241 0.195206
vt 0.263574 0.199376
vt 0.249523 0.352808
vt 0.006558 0.211233
vt 0.046628 0.204644
vt 0.066480 0.363273
vt 0.027367 0.371593
vt 0.212259 0.355889
vt 0.249197 0.354830
vt 0.368783 0.651537
vt 0.368781 0.649462
vt 0.406822 0.649540
vt 0.404775 0.651593
vt 0.212103 0.357961
vt 0.248872 0.356868
vt 0.067215 0.365242
vt 0.028472 0.373517
vt 0.067945 0.367194
vt 0.030488 0.375226
vt 0.368896 0.725796
vt 0.406938 0.725616
vt 0.324360 0.373552
vt 0.286163 0.365310
vt 0.322370 0.375264
vt 0.285440 0.367266
vt 0.406997 0.687582
vt 0.176431 0.194401
vt 0.176015 0.348104
vt 0.176014 0.350166
vt 0.176012 0.352240
vt 0.330746 0.649617
vt 0.332798 0.651665
vn -0.019461 0.999621 0.019461
vn -0.131632 0.982520 0.131634
vn 0.000000 0.965925 0.258822
vn 0.000000 0.999895 0.014470
vn 0.000000 0.707107 0.707107
vn 0.000000 0.423221 0.906027
vn -0.000000 0.497042 0.867727
vn -0.000000 0.707107 0.707106
vn 0.000000 0.002805 0.999996
vn -0.000000 0.003338 0.999994
vn 0.000000 0.000000 1.000000
vn 0.000000 -0.000000 1.000000
vn -0.014470 0.999895 0.000000
vn 0.000000 1.000000 0.000000
vn 0.000000 0.999895 -0.014470
vn -0.019461 0.999621 -0.019461
vn 0.000000 0.002805 -0.999996
vn 0.000000 0.003338 -0.999995
vn 0.000000 0.000000 -1.000000
vn 0.000000 0.000000 -1.000000
vn 0.999995 0.003338 0.000000
vn 1.000000 -0.000000 0.000000
vn 1.000000 0.000000 0.000000
vn 0.999996 0.002805 0.000000
vn -1.000000 0.000000 0.000000
vn -1.000000 0.000000 0.000000
vn -0.999995 0.003338 0.000000
vn -0.999996 0.002805 0.000000
vn 0.867727 0.497041 0.000000
vn 0.906027 0.423220 0.000000
vn 0.014470 0.999895 0.000000
vn 0.258817 0.965926 0.000000
vn 0.131632 0.982520 -0.131634
vn 0.019461 0.999621 -0.019461
vn 0.707109 0.707104 0.000000
vn 0.707109 0.707104 0.000000
vn -0.867727 0.497041 0.000000
vn -0.906027 0.423220 0.000000
vn -0.707109 0.707104 0.000000
vn -0.707109 0.707104 0.000000
vn -0.258817 0.965926 0.000000
vn -0.131632 0.982520 -0.131634
vn 0.000000 0.423221 -0.906027
vn 0.000000 0.497042 -0.867727
vn 0.000000 0.707107 -0.707107
vn 0.000000 0.707107 -0.707107
vn 0.000000 0.965925 -0.258822
vn 0.000000 -0.000000 1.000000
vn -0.000000 0.002805 0.999996
vn -0.000000 0.423221 0.906026
vn -0.000000 0.707108 0.707106
vn 0.131632 0.982520 0.131634
vn 0.019461 0.999621 0.019461
vn 0.000000 0.707107 -0.707107
vn 0.000000 0.423221 -0.906027
vn 0.000000 0.002805 -0.999996
vn 0.000000 0.000000 -1.000000
vn -1.000000 0.000000 0.000000
vn -0.999996 0.002805 0.000000
vn -0.906027 0.423220 0.000000
vn -0.707109 0.707104 0.000000
vn 0.707109 0.707104 0.000000
vn 0.906027 0.423220 0.000000
vn 0.999996 0.002805 0.000000
vn 1.000000 -0.000000 0.000000
s 1
g Display
usemtl initialShadingGroup
f 8/1/1 7/2/2 24/3/3 25/4/4
s 2
f 7/5/5 6/6/6 23/7/7 24/8/8
f 6/6/6 5/9/9 22/10/10 23/7/7
f 1/11/11 21/12/12 22/10/10 5/9/9
s 1
f 35/13/13 36/14/14 26/15/15 13/16/16
s 3
f 16/17/17 29/18/18 30/19/19 3/20/20
s 4
f 40/21/21 41/22/22 4/23/23 20/24/24
s 5
f 3/25/25 31/26/26 32/27/27 16/28/28
s 4
f 39/29/29 40/21/21 20/24/24 19/30/30
s 1
f 37/31/31 38/32/32 18/33/33 17/34/34
s 4
f 38/35/35 39/29/29 19/30/30 18/36/36
s 5
f 32/27/27 33/37/37 15/38/38 16/28/28
f 33/37/37 34/39/39 14/40/40 15/38/38
s 1
f 34/41/41 35/13/13 13/16/16 14/42/42
s 3
f 16/17/17 15/43/43 28/44/44 29/18/18
f 15/43/43 14/45/45 27/46/46 28/44/44
s 1
f 14/42/42 13/16/16 26/15/15 27/47/47
s 2
f 22/10/10 21/12/12 2/48/48 12/49/49
f 23/7/7 22/10/10 12/49/49 11/50/50
f 24/8/8 23/7/7 11/50/50 10/51/51
s 1
f 25/4/4 24/3/3 10/52/52 9/53/53
f 26/15/15 36/14/14 37/31/31 17/34/34
f 27/47/47 26/15/15 17/34/34 18/33/33
s 3
f 28/44/44 27/46/46 18/36/54 19/30/55
f 29/18/18 28/44/44 19/30/55 20/24/56
f 30/19/19 29/18/18 20/24/56 4/23/57
s 5
f 32/27/27 31/26/26 1/11/58 5/9/59
f 5/9/59 6/6/60 33/37/37 32/27/27
f 6/6/60 7/5/61 34/39/39 33/37/37
s 1
f 7/2/2 8/1/1 35/13/13 34/41/41
f 8/1/1 25/4/4 36/14/14 35/13/13
f 37/31/31 36/14/14 25/4/4 9/53/53
f 9/53/53 10/52/52 38/32/32 37/31/31
s 4
f 10/51/62 11/50/63 39/29/29 38/35/35
f 11/50/63 12/49/64 40/21/21 39/29/29
f 2/48/65 41/22/22 40/21/21 12/49/64
