# This file uses centimeters as units for non-parametric coordinates.

mtllib new_bench.mtl
g default
v -1.808036 1.347389 0.598470
v 1.808036 1.347389 0.598470
v 1.808036 1.347389 -0.598470
v -1.808036 1.347389 -0.598470
v -1.801648 1.269490 0.596355
v 1.801648 1.269490 0.596355
v 1.801648 1.269490 -0.596355
v -1.801648 1.269490 -0.596355
v 1.845049 -0.047345 0.669233
v 1.845049 -0.047345 0.606725
v 1.845049 1.214031 0.669233
v 1.845049 1.214031 0.606725
v 1.791806 1.214031 0.669233
v 1.791806 1.214031 0.606725
v 1.791806 -0.047345 0.669233
v 1.791806 -0.047345 0.606725
v 1.867458 -0.047345 0.628614
v 1.769397 -0.047345 0.628614
v 1.769397 1.214031 0.628614
v 1.867458 1.214031 0.628614
v 1.867843 -0.047345 0.648923
v 1.769011 -0.047345 0.648923
v 1.769011 1.214031 0.648923
v 1.867843 1.214031 0.648923
v 1.818427 1.214031 0.669233
v 1.818427 1.214031 0.606725
v 1.818427 -0.047345 0.606725
v 1.818427 -0.047345 0.669233
v 1.845049 -0.047345 -0.669233
v 1.845049 -0.047345 -0.606725
v 1.845049 1.214031 -0.669233
v 1.845049 1.214031 -0.606725
v 1.791806 1.214031 -0.669233
v 1.791806 1.214031 -0.606725
v 1.791806 -0.047345 -0.669233
v 1.791806 -0.047345 -0.606725
v 1.867458 -0.047345 -0.628614
v 1.769397 -0.047345 -0.628614
v 1.769397 1.214031 -0.628614
v 1.867458 1.214031 -0.628614
v 1.867843 -0.047345 -0.648923
v 1.769011 -0.047345 -0.648923
v 1.769011 1.214031 -0.648923
v 1.867843 1.214031 -0.648923
v 1.818427 1.214031 -0.669233
v 1.818427 1.214031 -0.606725
v 1.818427 -0.047345 -0.606725
v 1.818427 -0.047345 -0.669233
v -1.845049 -0.047345 0.669233
v -1.845049 -0.047345 0.606725
v -1.845049 1.214031 0.669233
v -1.845049 1.214031 0.606725
v -1.791806 1.214031 0.669233
v -1.791806 1.214031 0.606725
v -1.791806 -0.047345 0.669233
v -1.791806 -0.047345 0.606725
v -1.867458 -0.047345 0.628614
v -1.769397 -0.047345 0.628614
v -1.769397 1.214031 0.628614
v -1.867458 1.214031 0.628614
v -1.867843 -0.047345 0.648923
v -1.769011 -0.047345 0.648923
v -1.769011 1.214031 0.648923
v -1.867843 1.214031 0.648923
v -1.818427 1.214031 0.669233
v -1.818427 1.214031 0.606725
v -1.818427 -0.047345 0.606725
v -1.818427 -0.047345 0.669233
v -1.845049 -0.047345 -0.669233
v -1.845049 -0.047345 -0.606725
v -1.845049 1.214031 -0.669233
v -1.845049 1.214031 -0.606725
v -1.791806 1.214031 -0.669233
v -1.791806 1.214031 -0.606725
v -1.791806 -0.047345 -0.669233
v -1.791806 -0.047345 -0.606725
v -1.867458 -0.047345 -0.628614
v -1.769397 -0.047345 -0.628614
v -1.769397 1.214031 -0.628614
v -1.867458 1.214031 -0.628614
v -1.867843 -0.047345 -0.648923
v -1.769011 -0.047345 -0.648923
v -1.769011 1.214031 -0.648923
v -1.867843 1.214031 -0.648923
v -1.818427 1.214031 -0.669233
v -1.818427 1.214031 -0.606725
v -1.818427 -0.047345 -0.606725
v -1.818427 -0.047345 -0.669233
v -1.843220 1.246685 0.588244
v 1.843220 1.246685 0.588244
v -1.843220 1.482449 0.588244
v 1.843220 1.482449 0.588244
v -1.843220 1.482449 -0.588244
v 1.843220 1.482449 -0.588244
v -1.843220 1.246685 -0.588244
v 1.843220 1.246685 -0.588244
v -1.824952 1.509537 0.582414
v 1.824952 1.509537 0.582414
v 1.824952 1.509537 -0.582414
v -1.824952 1.509537 -0.582414
v -1.779281 1.525244 0.567838
v 1.779281 1.525244 0.567838
v 1.779281 1.525244 -0.567838
v -1.779281 1.525244 -0.567838
v -1.701812 1.539009 0.543115
v 1.701812 1.539009 0.543115
v 1.701812 1.539009 -0.543115
v -1.701812 1.539009 -0.543115
v 0.000000 1.246685 0.588244
v 0.000000 1.246685 -0.588244
v 0.000000 1.482449 -0.588244
v 0.000000 1.509537 -0.582414
v 0.000000 1.525244 -0.567838
v 0.000000 1.539009 -0.543115
v 0.000000 1.539009 0.543115
v 0.000000 1.525244 0.567838
v 0.000000 1.509537 0.582414
v 0.000000 1.482449 0.588244
v -1.843220 1.482449 0.000000
v -1.824952 1.509537 0.000000
v -1.779281 1.525244 0.000000
v -1.701812 1.539009 0.000000
v 0.000000 1.539009 0.000000
v 1.701812 1.539009 0.000000
v 1.779281 1.525244 0.000000
v 1.824952 1.509537 0.000000
v 1.843220 1.482449 0.000000
v 1.843220 1.246685 0.000000
v -1.843220 1.246685 0.000000
v -1.843220 1.364567 0.588244
v 0.000000 1.364567 0.588244
v 1.843220 1.364567 0.588244
v 1.843220 1.364567 0.000000
v 1.843220 1.364567 -0.588244
v 0.000000 1.364567 -0.588244
v -1.843220 1.364567 -0.588244
v -1.843220 1.364567 0.000000
v -1.886599 1.209445 0.669614
v -1.880897 1.207395 0.669614
v -1.880897 1.209445 0.675316
v -1.880897 1.214394 0.677678
v -1.886599 1.214394 0.675316
v -1.888961 1.214394 0.669614
v 1.886599 1.209445 0.669614
v 1.888961 1.214394 0.669614
v 1.886599 1.214394 0.675316
v 1.880897 1.214394 0.677678
v 1.880897 1.209445 0.675316
v 1.880897 1.207395 0.669614
v -1.886599 1.345339 0.669614
v -1.888961 1.340389 0.669614
v -1.886599 1.340389 0.675316
v -1.880897 1.340389 0.677678
v -1.880897 1.345339 0.675316
v -1.880897 1.347389 0.669614
v 1.880897 1.345339 0.675316
v 1.880897 1.340389 0.677678
v 1.886599 1.340389 0.675316
v 1.888961 1.340389 0.669614
v 1.886599 1.345339 0.669614
v 1.880897 1.347389 0.669614
v -1.880897 1.345339 -0.675316
v -1.880897 1.340389 -0.677678
v -1.886599 1.340389 -0.675316
v -1.888961 1.340389 -0.669614
v -1.886599 1.345339 -0.669614
v -1.880897 1.347389 -0.669614
v 1.886599 1.345339 -0.669614
v 1.888961 1.340389 -0.669614
v 1.886599 1.340389 -0.675316
v 1.880897 1.340389 -0.677678
v 1.880897 1.345339 -0.675316
v 1.880897 1.347389 -0.669614
v -1.886599 1.209445 -0.669614
v -1.888961 1.214394 -0.669614
v -1.886599 1.214394 -0.675316
v -1.880897 1.214394 -0.677678
v -1.880897 1.209445 -0.675316
v -1.880897 1.207395 -0.669614
v 1.886599 1.209445 -0.669614
v 1.880897 1.207395 -0.669614
v 1.880897 1.209445 -0.675316
v 1.880897 1.214394 -0.677678
v 1.886599 1.214394 -0.675316
v 1.888961 1.214394 -0.669614
v -1.885551 1.210355 0.674268
v 1.885551 1.210355 0.674268
v -1.885551 1.344429 0.674268
v 1.885551 1.344429 0.674268
v -1.885551 1.344429 -0.674268
v 1.885551 1.344429 -0.674268
v -1.885551 1.210355 -0.674268
v 1.885551 1.210355 -0.674268
vt 0.021779 0.979956
vt 0.021737 0.776212
vt 0.025220 0.778796
vt 0.025070 0.977116
vt 0.094480 0.776113
vt 0.091188 0.778951
vt 0.094522 0.979847
vt 0.091038 0.977265
vt 0.331766 0.905295
vt 0.331766 0.838738
vt 0.333419 0.838738
vt 0.333419 0.905295
vt 0.323592 0.838738
vt 0.323591 0.905295
vt 0.321938 0.905295
vt 0.321939 0.838737
vt 0.320533 0.905295
vt 0.334824 0.838738
vt 0.326274 0.838738
vt 0.327679 0.838738
vt 0.327678 0.905295
vt 0.326274 0.905295
vt 0.324663 0.838738
vt 0.324663 0.905295
vt 0.330694 0.905295
vt 0.330695 0.838738
vt 0.329084 0.838738
vt 0.329083 0.905295
vt 0.322723 0.979866
vt 0.321070 0.979866
vt 0.321072 0.913309
vt 0.322725 0.913309
vt 0.330899 0.913309
vt 0.332552 0.913309
vt 0.332551 0.979866
vt 0.330898 0.979866
vt 0.319665 0.979866
vt 0.333957 0.913309
vt 0.328217 0.913309
vt 0.328215 0.979866
vt 0.326811 0.979866
vt 0.326812 0.913309
vt 0.329828 0.913309
vt 0.329826 0.979866
vt 0.323795 0.979866
vt 0.323796 0.913309
vt 0.325407 0.913309
vt 0.325406 0.979866
vt 0.350359 0.981509
vt 0.348706 0.981509
vt 0.348704 0.914952
vt 0.350357 0.914952
vt 0.358532 0.914952
vt 0.360185 0.914952
vt 0.360187 0.981509
vt 0.358534 0.981509
vt 0.347301 0.981509
vt 0.361590 0.914952
vt 0.355850 0.914952
vt 0.355851 0.981509
vt 0.354446 0.981509
vt 0.354445 0.914952
vt 0.357460 0.914952
vt 0.357462 0.981509
vt 0.351431 0.981509
vt 0.351429 0.914952
vt 0.353040 0.914952
vt 0.353042 0.981509
vt 0.358788 0.906055
vt 0.358787 0.839498
vt 0.360440 0.839498
vt 0.360441 0.906055
vt 0.350612 0.839498
vt 0.350613 0.906055
vt 0.348961 0.906055
vt 0.348959 0.839498
vt 0.347556 0.906055
vt 0.361844 0.839498
vt 0.353295 0.839498
vt 0.354699 0.839498
vt 0.354701 0.906055
vt 0.353296 0.906055
vt 0.351684 0.839498
vt 0.351685 0.906055
vt 0.357717 0.906055
vt 0.357715 0.839498
vt 0.356104 0.839498
vt 0.356106 0.906055
vt 0.123751 0.880178
vt 0.117531 0.880179
vt 0.125438 0.775737
vt 0.123735 0.782920
vt 0.185153 0.880168
vt 0.156495 0.880173
vt 0.156480 0.790376
vt 0.185138 0.790371
vt 0.195442 0.782908
vt 0.195459 0.880166
vt 0.189238 0.880167
vt 0.187517 0.781947
vt 0.156478 0.781952
vt 0.156477 0.775732
vt 0.187551 0.984609
vt 0.156512 0.984614
vt 0.156511 0.978394
vt 0.187550 0.978389
vt 0.125213 0.880178
vt 0.125197 0.783884
vt 0.156479 0.783676
vt 0.187210 0.783671
vt 0.187776 0.880168
vt 0.156511 0.976670
vt 0.187242 0.976665
vt 0.126344 0.880178
vt 0.126328 0.786293
vt 0.156479 0.786224
vt 0.186441 0.786219
vt 0.186646 0.880168
vt 0.156511 0.974122
vt 0.186473 0.974117
vt 0.127837 0.880178
vt 0.127822 0.790381
vt 0.156510 0.969970
vt 0.185168 0.969965
vt 0.126360 0.974063
vt 0.127852 0.969975
vt 0.125230 0.976473
vt 0.125472 0.978399
vt 0.125473 0.984619
vt 0.125474 0.990839
vt 0.111311 0.880180
vt 0.111295 0.782922
vt 0.156476 0.769512
vt 0.187515 0.769506
vt 0.201679 0.880165
vt 0.201695 0.977424
vt 0.156513 0.990834
vt 0.222888 0.782282
vt 0.222882 0.781963
vt 0.293548 0.781953
vt 0.293543 0.782273
vt 0.222872 0.781674
vt 0.293559 0.781665
vt 0.222279 0.782266
vt 0.222568 0.782277
vt 0.222584 0.980748
vt 0.222295 0.980759
vt 0.222904 0.980743
vt 0.222547 0.781718
vt 0.215631 0.781752
vt 0.222684 0.775045
vt 0.215627 0.782079
vt 0.222888 0.981351
vt 0.222899 0.981062
vt 0.293564 0.981053
vt 0.293575 0.981342
vt 0.293559 0.980734
vt 0.222339 0.981084
vt 0.222378 0.988010
vt 0.215655 0.980944
vt 0.222704 0.988014
vt 0.222672 0.774756
vt 0.098520 0.984378
vt 0.293743 0.775002
vt 0.017783 0.984077
vt 0.098511 0.984040
vt 0.017445 0.984082
vt 0.215366 0.980955
vt 0.017748 0.772016
vt 0.017741 0.771678
vt 0.293774 0.988260
vt 0.098476 0.771993
vt 0.293763 0.987970
vt 0.300792 0.782072
vt 0.301081 0.782060
vt 0.098814 0.771987
vt 0.300820 0.980937
vt 0.294069 0.775006
vt 0.294107 0.781932
vt 0.294152 0.782257
vt 0.300816 0.981263
vt 0.293900 0.981298
vt 0.294168 0.980749
vt 0.293863 0.782268
vt 0.293879 0.980739
vt 0.222599 0.781994
vt 0.222615 0.981032
vt 0.222407 0.774813
vt 0.215423 0.981221
vt 0.301024 0.781795
vt 0.294040 0.988203
vt 0.293831 0.781984
vt 0.293848 0.981022
vt 0.294124 0.981073
vt 0.293882 0.781708
vt 0.294087 0.987967
vt 0.098758 0.771713
vt 0.301052 0.981215
vt 0.301109 0.980949
vt 0.098481 0.771654
vt 0.300788 0.781747
vt 0.098795 0.984320
vt 0.294021 0.774769
vt 0.293755 0.774713
vt 0.098850 0.984048
vt 0.215659 0.981269
vt 0.017467 0.771731
vt 0.222426 0.988246
vt 0.222692 0.988303
vt 0.017409 0.772005
vt 0.222360 0.775049
vt 0.017502 0.984356
vt 0.215395 0.781801
vt 0.215338 0.782067
vt 0.017779 0.984415
vt 0.222565 0.981308
vt 0.222323 0.781943
vt 0.195475 0.977425
vt 0.187552 0.990829
vt 0.187516 0.775726
vt 0.201662 0.782907
vt 0.117515 0.782921
vt 0.125439 0.781957
vt 0.117548 0.977438
vt 0.123768 0.977437
vt 0.186661 0.974052
vt 0.186630 0.786283
vt 0.126517 0.786229
vt 0.126548 0.974127
vt 0.187793 0.976462
vt 0.187760 0.783873
vt 0.125747 0.783681
vt 0.125780 0.976675
vt 0.189255 0.977426
vt 0.189222 0.782909
vt 0.125437 0.769517
vt 0.111327 0.977439
vt 0.361846 0.906055
vt 0.347554 0.839498
vt 0.361591 0.981509
vt 0.347300 0.914952
vt 0.333956 0.979866
vt 0.319667 0.913309
vt 0.334823 0.905295
vt 0.320534 0.838738
vn 0.148382 0.889400 -0.432379
vn -0.148382 0.889400 -0.432379
vn -0.304417 0.050781 -0.951184
vn 0.304417 0.050781 -0.951184
vn -0.148382 0.889400 0.432379
vn -0.304417 0.050781 0.951184
vn 0.148382 0.889400 0.432379
vn 0.304417 0.050781 0.951184
vn 0.879838 0.000000 -0.475274
vn 0.879838 0.000000 -0.475274
vn 0.407654 0.000000 -0.913137
vn 0.407654 0.000000 -0.913137
vn -0.879837 0.000000 -0.475276
vn -0.879837 0.000000 -0.475276
vn -0.407653 0.000000 -0.913137
vn -0.407653 0.000000 -0.913137
vn 0.000000 0.000000 -1.000000
vn 0.000000 0.000000 -1.000000
vn -0.380134 0.000000 0.924931
vn 0.000000 0.000000 1.000000
vn 0.000000 0.000000 1.000000
vn -0.380134 0.000000 0.924931
vn -0.875584 0.000000 0.483066
vn -0.875584 0.000000 0.483066
vn 0.875585 0.000000 0.483064
vn 0.875585 0.000000 0.483064
vn 0.380135 0.000000 0.924931
vn 0.380135 0.000000 0.924931
vn 0.879838 0.000000 0.475274
vn 0.407654 0.000000 0.913137
vn 0.407654 0.000000 0.913137
vn 0.879838 0.000000 0.475274
vn -0.879837 0.000000 0.475276
vn -0.407653 0.000000 0.913137
vn -0.407653 0.000000 0.913137
vn -0.879837 0.000000 0.475276
vn 0.000000 0.000000 1.000000
vn 0.000000 0.000000 1.000000
vn -0.380134 0.000000 -0.924931
vn -0.380134 0.000000 -0.924931
vn 0.000000 0.000000 -1.000000
vn 0.000000 0.000000 -1.000000
vn -0.875584 0.000000 -0.483066
vn -0.875584 0.000000 -0.483066
vn 0.875585 0.000000 -0.483064
vn 0.875585 0.000000 -0.483064
vn 0.380135 0.000000 -0.924931
vn 0.380135 0.000000 -0.924931
vn -0.879838 0.000000 -0.475274
vn -0.407654 0.000000 -0.913137
vn -0.407654 0.000000 -0.913137
vn -0.879838 0.000000 -0.475274
vn 0.879837 0.000000 -0.475276
vn 0.407653 0.000000 -0.913137
vn 0.407653 0.000000 -0.913137
vn 0.879837 0.000000 -0.475276
vn 0.000000 0.000000 -1.000000
vn 0.000000 0.000000 -1.000000
vn 0.380134 0.000000 0.924931
vn 0.380134 0.000000 0.924931
vn 0.000000 0.000000 1.000000
vn 0.000000 0.000000 1.000000
vn 0.875584 0.000000 0.483066
vn 0.875584 0.000000 0.483066
vn -0.875585 0.000000 0.483064
vn -0.875585 0.000000 0.483064
vn -0.380135 0.000000 0.924931
vn -0.380135 0.000000 0.924931
vn -0.879838 0.000000 0.475274
vn -0.879838 0.000000 0.475274
vn -0.407654 0.000000 0.913137
vn -0.407654 0.000000 0.913137
vn 0.879837 0.000000 0.475276
vn 0.879837 0.000000 0.475276
vn 0.407653 0.000000 0.913137
vn 0.407653 0.000000 0.913137
vn 0.000000 0.000000 1.000000
vn 0.000000 0.000000 1.000000
vn 0.380134 0.000000 -0.924931
vn 0.000000 0.000000 -1.000000
vn 0.000000 0.000000 -1.000000
vn 0.380134 0.000000 -0.924931
vn 0.875584 0.000000 -0.483066
vn 0.875584 0.000000 -0.483066
vn -0.875585 0.000000 -0.483064
vn -0.875585 0.000000 -0.483064
vn -0.380135 0.000000 -0.924931
vn -0.380135 0.000000 -0.924931
vn 0.000000 0.040022 0.999199
vn 0.000000 0.000000 1.000000
vn 0.304032 0.000000 0.952662
vn 0.317589 0.061739 0.946216
vn 0.000000 0.999693 -0.024761
vn 0.000000 1.000000 0.000000
vn 0.007904 0.999969 0.000000
vn 0.008669 0.999145 -0.040432
vn 0.304032 0.000000 -0.952662
vn 0.000000 0.000000 -1.000000
vn 0.000000 0.040022 -0.999199
vn 0.317589 0.061739 -0.946216
vn 0.992216 0.124529 0.000000
vn 1.000000 0.000000 0.000000
vn -0.304032 0.000000 -0.952662
vn -1.000000 0.000000 0.000000
vn -0.992216 0.124529 0.000000
vn -0.317589 0.061739 -0.946216
vn 0.000000 0.428256 0.903658
vn 0.256928 0.568204 0.781749
vn 0.558566 0.829460 0.000000
vn 0.256928 0.568204 -0.781749
vn 0.000000 0.428256 -0.903658
vn -0.558566 0.829460 0.000000
vn -0.256928 0.568204 -0.781749
vn 0.000000 0.798396 0.602133
vn 0.126675 0.905266 0.405521
vn 0.234005 0.972235 0.000000
vn 0.126675 0.905266 -0.405521
vn 0.000000 0.798396 -0.602133
vn -0.234005 0.972235 0.000000
vn -0.126675 0.905266 -0.405521
vn 0.000000 0.999693 0.024761
vn 0.008669 0.999145 0.040432
vn -0.007904 0.999969 0.000000
vn -0.008669 0.999145 -0.040432
vn -0.126675 0.905266 0.405521
vn -0.008669 0.999145 0.040432
vn -0.256929 0.568204 0.781749
vn -0.317589 0.061739 0.946216
vn -0.304032 0.000000 0.952662
vn -0.304032 0.000000 0.952662
vn 0.000000 0.000000 1.000000
vn 0.304032 0.000000 0.952662
vn 1.000000 0.000000 0.000000
vn 0.304032 0.000000 -0.952662
vn 0.000000 0.000000 -1.000000
vn -0.304032 0.000000 -0.952662
vn -1.000000 0.000000 0.000000
vn -0.000543 -0.999999 0.001523
vn -0.655488 -0.755205 0.001095
vn -0.655488 -0.755205 -0.001095
vn -0.000543 -0.999999 -0.001523
vn -0.999836 -0.018008 0.001733
vn -0.999836 -0.018008 -0.001733
vn -0.000618 -0.018026 0.999837
vn -0.000391 -0.755221 0.655470
vn 0.000391 -0.755221 0.655470
vn 0.000618 -0.018026 0.999837
vn 0.000543 -0.999999 0.001523
vn -0.707055 -0.012050 0.707056
vn -0.707055 0.012050 0.707056
vn -0.999836 0.018008 0.001733
vn -0.000618 0.018026 0.999837
vn 0.999836 -0.018008 0.001733
vn 0.655488 -0.755205 0.001095
vn 0.655488 -0.755205 -0.001095
vn 0.999836 -0.018008 -0.001733
vn 0.000543 -0.999999 -0.001523
vn 0.707055 -0.012050 0.707056
vn 0.707055 0.012050 0.707056
vn 0.000618 0.018026 0.999837
vn 0.999836 0.018008 0.001733
vn -0.655488 0.755205 0.001095
vn -0.655488 0.755205 -0.001095
vn -0.999836 0.018008 -0.001733
vn -0.013403 0.999204 0.037581
vn -0.013403 0.999204 -0.037581
vn -0.000391 0.755221 0.655470
vn 0.000391 0.755221 0.655470
vn 0.013403 0.999204 0.037581
vn 0.655488 0.755205 0.001095
vn 0.655488 0.755205 -0.001095
vn 0.013403 0.999204 -0.037581
vn 0.999836 0.018008 -0.001733
vn -0.000618 0.018026 -0.999837
vn -0.000391 0.755221 -0.655470
vn 0.000391 0.755221 -0.655470
vn 0.000618 0.018026 -0.999837
vn -0.707055 0.012050 -0.707056
vn -0.707055 -0.012050 -0.707056
vn -0.000618 -0.018026 -0.999837
vn 0.707055 0.012050 -0.707056
vn 0.707055 -0.012050 -0.707056
vn 0.000618 -0.018026 -0.999837
vn -0.000391 -0.755221 -0.655470
vn 0.000391 -0.755221 -0.655470
vn -0.547229 -0.633308 0.547231
vn 0.547230 -0.633307 0.547231
vn -0.547230 0.633304 0.547235
vn 0.547229 0.633308 0.547231
vn -0.547229 0.633308 -0.547231
vn 0.547230 0.633304 -0.547235
vn -0.547230 -0.633307 -0.547231
vn 0.547229 -0.633308 -0.547231
s 1
g bench
usemtl initialShadingGroup
f 1/1/1 2/2/2 6/3/3 5/4/4
f 2/2/2 3/5/5 7/6/6 6/3/3
f 3/5/5 4/7/7 8/8/8 7/6/6
f 4/7/7 1/1/1 5/4/4 8/8/8
s 2
f 20/9/9 17/10/10 10/11/11 12/12/12
f 18/13/13 19/14/14 14/15/15 16/16/16
f 26/17/17 27/245/18 16/16/16 14/15/15
f 15/19/19 28/20/20 25/21/21 13/22/22
f 22/23/23 23/24/24 19/14/14 18/13/13
f 24/25/25 21/26/26 17/10/10 20/9/9
f 13/22/22 23/24/24 22/23/23 15/19/19
f 9/27/27 21/26/26 24/25/25 11/28/28
f 10/11/11 27/18/18 26/244/17 12/12/12
f 25/21/21 28/20/20 9/27/27 11/28/28
s 5
f 40/29/29 32/30/30 30/31/31 37/32/32
f 38/33/33 36/34/34 34/35/35 39/36/36
f 46/242/37 34/35/35 36/34/34 47/38/38
f 35/39/39 33/40/40 45/41/41 48/42/42
f 42/43/43 38/33/33 39/36/36 43/44/44
f 44/45/45 40/29/29 37/32/32 41/46/46
f 33/40/40 35/39/39 42/43/43 43/44/44
f 29/47/47 31/48/48 44/45/45 41/46/46
f 30/31/31 32/30/30 46/37/37 47/243/38
f 45/41/41 31/48/48 29/47/47 48/42/42
s 8
f 60/49/49 52/50/50 50/51/51 57/52/52
f 58/53/53 56/54/54 54/55/55 59/56/56
f 66/240/57 54/55/55 56/54/54 67/58/58
f 55/59/59 53/60/60 65/61/61 68/62/62
f 62/63/63 58/53/53 59/56/56 63/64/64
f 64/65/65 60/49/49 57/52/52 61/66/66
f 53/60/60 55/59/59 62/63/63 63/64/64
f 49/67/67 51/68/68 64/65/65 61/66/66
f 50/51/51 52/50/50 66/57/57 67/241/58
f 65/61/61 51/68/68 49/67/67 68/62/62
s 11
f 80/69/69 77/70/70 70/71/71 72/72/72
f 78/73/73 79/74/74 74/75/75 76/76/76
f 86/77/77 87/239/78 76/76/76 74/75/75
f 75/79/79 88/80/80 85/81/81 73/82/82
f 82/83/83 83/84/84 79/74/74 78/73/73
f 84/85/85 81/86/86 77/70/70 80/69/69
f 73/82/82 83/84/84 82/83/83 75/79/79
f 69/87/87 81/86/86 84/85/85 71/88/88
f 70/71/71 87/78/78 86/238/77 72/72/72
f 85/81/81 88/80/80 69/87/87 71/88/88
s 14
f 118/89/89 131/90/90 132/222/91 92/92/92
f 114/93/93 123/94/94 124/95/95 107/96/96
f 134/97/97 135/98/98 111/99/99 94/235/100
f 127/101/101 133/102/102 134/220/97 94/100/100
f 136/103/103 137/104/104 119/105/105 93/106/106
f 117/107/107 118/89/89 92/92/92 98/108/108
f 126/109/109 127/101/101 94/100/100 99/110/110
f 94/235/100 111/99/99 112/111/111 99/231/110
f 93/106/106 119/105/105 120/112/112 100/113/113
f 116/114/114 117/107/107 98/108/108 102/115/115
f 125/116/116 126/109/109 99/110/110 103/117/117
f 99/231/110 112/111/111 113/118/118 103/227/117
f 100/113/113 120/112/112 121/119/119 104/120/120
f 115/121/121 116/114/114 102/115/115 106/122/122
f 124/95/95 125/116/116 103/117/117 107/96/96
f 103/227/117 113/118/118 114/93/93 107/96/96
f 104/120/120 121/119/119 122/123/123 108/124/124
f 93/234/106 111/99/99 135/98/98 136/218/103
f 112/111/111 111/99/99 93/234/106 100/230/113
f 113/118/118 112/111/111 100/230/113 104/226/120
f 114/93/93 113/118/118 104/226/120 108/124/124
f 122/123/123 123/94/94 114/93/93 108/124/124
f 101/125/125 116/114/114 115/121/121 105/126/126
f 97/127/127 117/107/107 116/114/114 101/125/125
f 91/225/128 118/89/89 117/107/107 97/127/127
f 130/224/129 131/90/90 118/89/89 91/225/128
f 120/112/112 119/105/105 91/128/128 97/233/127
f 121/119/119 120/112/112 97/233/127 101/229/125
f 122/123/123 121/119/119 101/229/125 105/126/126
f 105/126/126 115/121/121 123/94/94 122/123/123
f 124/95/95 123/94/94 115/121/121 106/122/122
f 102/228/115 125/116/116 124/95/95 106/122/122
f 98/232/108 126/109/109 125/116/116 102/228/115
f 92/223/92 127/101/101 126/109/109 98/232/108
f 132/91/91 133/102/102 127/101/101 92/223/92
f 119/105/105 137/104/104 130/129/129 91/128/128
f 89/237/130 109/131/131 131/90/90 130/224/129
f 132/222/91 131/90/90 109/131/131 90/132/132
f 90/236/132 128/133/133 133/102/102 132/91/91
f 134/220/97 133/102/102 128/133/133 96/134/134
f 110/135/135 135/98/98 134/97/97 96/221/134
f 136/218/103 135/98/98 110/135/135 95/136/136
f 95/219/136 129/137/137 137/104/104 136/103/103
f 130/129/129 137/104/104 129/137/137 89/130/130
s 1
f 139/138/138 138/139/139 174/140/140 179/141/141
f 138/139/139 143/142/142 175/143/143 174/140/140
f 141/144/144 140/145/145 148/146/146 147/147/147
f 140/145/145 139/138/138 149/148/148 148/146/146
f 143/142/142 142/149/149 152/211/150 151/151/151
f 142/217/149 141/144/144 153/152/152 152/150/150
f 145/153/153 144/154/154 180/155/155 185/156/156
f 144/154/154 149/148/148 181/157/157 180/155/155
f 147/147/147 146/158/158 158/206/159 157/160/160
f 146/216/158 145/153/153 159/161/161 158/159/159
f 151/151/151 150/162/162 166/204/163 165/164/164
f 150/215/162 155/165/165 167/166/166 166/163/163
f 155/165/165 154/167/167 156/210/168 161/169/169
f 154/214/167 153/152/152 157/160/160 156/168/168
f 161/169/169 160/170/170 168/200/171 173/172/172
f 160/209/170 159/161/161 169/173/173 168/171/171
f 163/174/174 162/175/175 172/199/176 171/177/177
f 162/205/175 167/166/166 173/172/172 172/176/176
f 165/164/164 164/178/178 176/195/179 175/143/143
f 164/201/178 163/174/174 177/180/180 176/179/179
f 171/177/177 170/181/181 184/194/182 183/183/183
f 170/196/181 169/173/173 185/156/156 184/182/182
f 179/141/141 178/184/184 182/185/185 181/157/157
f 178/184/184 177/180/180 183/183/183 182/185/185
f 141/144/144 147/147/147 157/160/160 153/152/152
f 163/174/174 171/177/177 183/183/183 177/180/180
f 179/141/141 181/157/157 149/148/148 139/138/138
f 145/153/153 185/156/156 169/173/173 159/161/161
f 175/143/143 143/142/142 151/151/151 165/164/164
f 155/165/165 161/169/169 2/2/2 1/1/1
f 161/169/169 173/172/172 3/5/5 2/2/2
f 173/172/172 167/166/166 4/7/7 3/5/5
f 167/166/166 155/165/165 1/1/1 4/7/7
f 142/149/149 143/142/142 138/139/139 186/186/186
f 138/139/139 139/138/138 140/145/145 186/186/186
f 140/145/145 141/144/144 142/217/149 186/186/186
f 148/146/146 149/148/148 144/154/154 187/187/187
f 144/154/154 145/153/153 146/216/158 187/187/187
f 146/158/158 147/147/147 148/146/146 187/187/187
f 154/167/167 155/165/165 150/215/162 188/212/188
f 150/162/162 151/151/151 152/211/150 188/188/188
f 152/150/150 153/152/152 154/214/167 188/213/188
f 160/170/170 161/169/169 156/210/168 189/207/189
f 156/168/168 157/160/160 158/206/159 189/189/189
f 158/159/159 159/161/161 160/209/170 189/208/189
f 166/163/163 167/166/166 162/205/175 190/202/190
f 162/175/175 163/174/174 164/201/178 190/190/190
f 164/178/178 165/164/164 166/204/163 190/203/190
f 172/176/176 173/172/172 168/200/171 191/197/191
f 168/171/171 169/173/173 170/196/181 191/191/191
f 170/181/181 171/177/177 172/199/176 191/198/191
f 178/184/184 179/141/141 174/140/140 192/192/192
f 174/140/140 175/143/143 176/195/179 192/192/192
f 176/179/179 177/180/180 178/184/184 192/192/192
f 184/182/182 185/156/156 180/155/155 193/193/193
f 180/155/155 181/157/157 182/185/185 193/193/193
f 182/185/185 183/183/183 184/194/182 193/193/193
