# This file uses centimeters as units for non-parametric coordinates.

mtllib decahedron.mtl
g default
v -0.026627 4.047264 -0.981660
v 0.548589 4.642334 -0.333130
v -0.501142 4.669299 -0.279178
v -0.860198 3.695243 -0.446110
v -0.032376 3.066279 -0.603233
v 0.838303 3.651613 -0.533407
v 0.898344 4.029123 0.446110
v 0.070522 4.658087 0.603233
v -0.800156 4.072752 0.533407
v -0.510443 3.082031 0.333130
v 0.539288 3.055067 0.279178
v 0.064773 3.677101 0.981660
vt 0.216590 0.085482
vt 0.183743 0.121232
vt 0.031575 0.151176
vt 0.049451 0.085482
vt 0.031575 0.019787
vt 0.183743 0.049731
vt 0.150896 0.085482
vt 0.133020 0.151176
vt 0.082298 0.121232
vt 0.082298 0.049731
vt 0.133020 0.019787
vt 0.115145 0.085482
vt 0.234465 0.151176
vt 0.252341 0.085482
vt 0.234465 0.019787
vn -0.015268 0.743446 -0.668621
vn -0.015268 0.743446 -0.668621
vn -0.015268 0.743446 -0.668621
vn -0.606211 0.346170 -0.716013
vn -0.606211 0.346170 -0.716013
vn -0.606211 0.346170 -0.716013
vn -0.409578 -0.326248 -0.851944
vn -0.409578 -0.326248 -0.851944
vn -0.409578 -0.326248 -0.851944
vn 0.302891 -0.344549 -0.888562
vn 0.302891 -0.344549 -0.888562
vn 0.302891 -0.344549 -0.888562
vn 0.546588 0.316558 -0.775263
vn 0.546588 0.316558 -0.775263
vn 0.546588 0.316558 -0.775263
vn 0.025483 0.999668 -0.003807
vn 0.025483 0.999668 -0.003807
vn 0.025483 0.999668 -0.003807
vn -0.930683 0.356862 -0.080488
vn -0.930683 0.356862 -0.080488
vn -0.930683 0.356862 -0.080488
vn -0.612524 -0.731134 -0.300429
vn -0.612524 -0.731134 -0.300429
vn -0.612524 -0.731134 -0.300429
vn 0.540275 -0.760745 -0.359680
vn 0.540275 -0.760746 -0.359680
vn 0.540275 -0.760745 -0.359680
vn 0.934585 0.308949 -0.176357
vn 0.934585 0.308949 -0.176357
vn 0.934585 0.308949 -0.176357
vn 0.612524 0.731134 0.300429
vn 0.612524 0.731134 0.300429
vn 0.612524 0.731134 0.300429
vn -0.540275 0.760746 0.359679
vn -0.540275 0.760745 0.359679
vn -0.540275 0.760745 0.359679
vn -0.934585 -0.308949 0.176357
vn -0.934585 -0.308949 0.176357
vn -0.934585 -0.308949 0.176357
vn -0.025483 -0.999668 0.003806
vn -0.025483 -0.999668 0.003806
vn -0.025483 -0.999668 0.003806
vn 0.930683 -0.356862 0.080488
vn 0.930683 -0.356862 0.080488
vn 0.930683 -0.356862 0.080488
vn 0.409578 0.326248 0.851944
vn 0.409578 0.326248 0.851944
vn 0.409578 0.326248 0.851944
vn -0.302891 0.344549 0.888562
vn -0.302891 0.344549 0.888562
vn -0.302891 0.344549 0.888562
vn -0.546588 -0.316558 0.775263
vn -0.546588 -0.316558 0.775263
vn -0.546588 -0.316558 0.775263
vn 0.015268 -0.743446 0.668621
vn 0.015268 -0.743446 0.668621
vn 0.015268 -0.743446 0.668621
vn 0.606211 -0.346170 0.716013
vn 0.606211 -0.346170 0.716013
vn 0.606211 -0.346170 0.716013
s off
g pPlatonic1
usemtl initialShadingGroup
f 1/1/1 3/13/2 2/2/3
f 1/1/4 4/14/5 3/13/6
f 1/1/7 5/15/8 4/14/9
f 1/1/10 6/6/11 5/15/12
f 1/1/13 2/2/14 6/6/15
f 2/2/16 3/13/17 8/8/18
f 3/3/19 4/4/20 9/9/21
f 4/4/22 5/5/23 10/10/24
f 5/15/25 6/6/26 11/11/27
f 6/6/28 2/2/29 7/7/30
f 2/2/31 8/8/32 7/7/33
f 3/3/34 9/9/35 8/8/36
f 4/4/37 10/10/38 9/9/39
f 5/5/40 11/11/41 10/10/42
f 6/6/43 7/7/44 11/11/45
f 7/7/46 8/8/47 12/12/48
f 8/8/49 9/9/50 12/12/51
f 9/9/52 10/10/53 12/12/54
f 10/10/55 11/11/56 12/12/57
f 11/11/58 7/7/59 12/12/60
