# This file uses centimeters as units for non-parametric coordinates.

mtllib frame.mtl
g default
v -1.183506 3.946204 0.054226
v 1.183506 3.946204 0.054226
v -1.183506 6.257873 0.054226
v 1.183506 6.257873 0.054226
v -1.183506 6.257873 -0.054226
v 1.183506 6.257873 -0.054226
v -1.183506 3.946204 -0.054226
v 1.183506 3.946204 -0.054226
v -1.063061 4.063833 0.075099
v 1.063061 4.063833 0.075099
v -1.063061 6.140243 0.075099
v 1.063061 6.140243 0.075099
v -1.054899 4.071803 0.029061
v 1.054899 4.071803 0.029061
v -1.054899 6.132273 0.029061
v 1.054899 6.132273 0.029061
v -1.165382 3.963904 0.066750
v -1.152660 3.976415 0.072984
v -1.138688 3.990316 0.075099
v 1.165382 3.963904 0.066750
v 1.152624 3.976451 0.072985
v 1.138546 3.990458 0.075099
v -1.165382 6.240173 0.066750
v -1.152624 6.227626 0.072985
v -1.138546 6.213619 0.075099
v 1.165382 6.240173 0.066750
v 1.152660 6.227662 0.072984
v 1.138688 6.213761 0.075099
v -1.039628 4.086718 0.029061
v 1.039628 4.086718 0.029061
v -1.039628 6.117359 0.029061
v 1.039628 6.117359 0.029061
v -0.928031 4.195704 0.110495
v 0.928031 4.195704 0.110495
v -0.928031 6.008372 0.110495
v 0.928031 6.008372 0.110495
v -0.906394 4.216836 -0.110790
v 0.906394 4.216836 -0.110790
v -0.906394 5.987241 -0.110790
v 0.906394 5.987241 -0.110790
v -1.039628 4.086718 0.094210
v -1.034858 4.091487 0.105725
v -1.023342 4.103003 0.110495
v 1.039628 4.086718 0.094210
v 1.034858 4.091487 0.105725
v 1.023342 4.103003 0.110495
v -1.039628 6.117359 0.094210
v -1.034858 6.112589 0.105725
v -1.023342 6.101073 0.110495
v 1.039628 6.117359 0.094210
v 1.034858 6.112589 0.105725
v 1.023342 6.101073 0.110495
vt 0.219774 0.701326
vt 0.195167 0.668121
vt 0.161957 0.643518
vt 0.244374 0.668121
vt 0.219778 0.750533
vt 0.137361 0.725929
vt 0.161962 0.692725
vt 0.186568 0.725929
vt 0.190869 0.719125
vt 0.168768 0.697026
vt 0.289024 0.723859
vt 0.299257 0.703580
vt 0.190867 0.674926
vt 0.212967 0.697024
vt 0.289981 0.682619
vt 0.264979 0.673240
vt 0.165001 0.698666
vt 0.192513 0.722896
vt 0.216735 0.695384
vt 0.189222 0.671154
vt 0.190872 0.720693
vt 0.167203 0.697023
vt 0.190863 0.673357
vt 0.214533 0.697028
vt 0.190516 0.721340
vt 0.215181 0.696672
vt 0.166552 0.696670
vt 0.190510 0.672708
vt 0.062559 0.488413
vt 0.062931 0.557225
vt 0.063055 0.534287
vt 0.062931 0.511349
vt 0.013071 0.489482
vt 0.013434 0.556690
vt 0.013555 0.534287
vt 0.013434 0.511883
vt 0.192508 0.671157
vt 0.186563 0.668119
vt 0.219771 0.692725
vt 0.216738 0.698667
vt 0.189228 0.722893
vt 0.195173 0.725931
vt 0.161965 0.701326
vt 0.164998 0.695383
vt 0.191220 0.672710
vt 0.166554 0.697378
vt 0.191226 0.721342
vt 0.215183 0.697380
vt 0.137356 0.668123
vt 0.161965 0.750532
vt 0.219771 0.643518
vt 0.244379 0.725927
vt 0.298195 0.733672
vt 0.268537 0.745639
vt 0.312249 0.703026
vt 0.297923 0.672679
vt 0.062559 0.580160
vt 0.013071 0.579091
vt 0.288890 0.723679
vt 0.265130 0.673515
vt 0.299022 0.703566
vt 0.289824 0.682789
vt 0.265109 0.731338
vt 0.264969 0.731600
vt 0.269249 0.660799
vt 0.004714 0.607567
vt 0.035837 0.607502
vt 0.004737 0.618977
vt 0.098085 0.607372
vt 0.066985 0.618847
vt 0.129208 0.607307
vt 0.098108 0.618782
vt 0.066961 0.607437
vt 0.035861 0.618912
vt 0.012644 0.641877
vt 0.017516 0.741751
vt 0.117372 0.746616
vt 0.112500 0.646741
vt 0.012659 0.746630
vt 0.112513 0.741738
vt 0.117357 0.641862
vt 0.017503 0.646755
vt 0.129232 0.618717
vt 0.004743 0.621829
vt 0.011805 0.747464
vt 0.129238 0.621569
vt 0.035867 0.621764
vt 0.011790 0.641044
vt 0.118226 0.747449
vt 0.098114 0.621634
vt 0.118210 0.641029
vt 0.066991 0.621699
vn 0.000000 1.000000 0.000000
vn 0.000000 1.000000 0.000000
vn 0.000000 1.000000 0.000000
vn 0.000000 1.000000 0.000000
vn 0.000000 -1.000000 0.000000
vn 0.000000 -1.000000 0.000000
vn 0.000000 -1.000000 0.000000
vn 0.000000 -1.000000 0.000000
vn 1.000000 0.000000 0.000000
vn 1.000000 0.000000 0.000000
vn 1.000000 0.000000 0.000000
vn 1.000000 0.000000 0.000000
vn -1.000000 0.000000 0.000000
vn -1.000000 0.000000 0.000000
vn -1.000000 0.000000 0.000000
vn -1.000000 0.000000 0.000000
vn 0.000000 0.985345 0.170576
vn 0.000000 0.985345 0.170576
vn 0.000000 0.985345 0.170576
vn 0.000000 0.985345 0.170576
vn 0.000000 -0.985342 0.170591
vn 0.000000 -0.985342 0.170591
vn 0.000000 -0.985342 0.170591
vn 0.000000 -0.985342 0.170591
vn 0.984648 0.000000 0.174549
vn 0.984648 0.000000 0.174549
vn 0.984648 0.000000 0.174549
vn 0.984648 0.000000 0.174549
vn -0.984648 0.000000 0.174549
vn -0.984648 0.000000 0.174549
vn -0.984648 0.000000 0.174549
vn -0.984648 0.000000 0.174549
vn 0.000000 -0.577611 0.816312
vn 0.000000 -0.577611 0.816312
vn 0.000001 -0.553578 0.832797
vn 0.000001 -0.553572 0.832801
vn 0.000000 0.577621 0.816305
vn 0.000000 0.577621 0.816305
vn -0.000001 0.553586 0.832792
vn -0.000001 0.553580 0.832796
vn -0.568505 0.000000 0.822680
vn -0.568505 0.000000 0.822680
vn -0.544529 0.000001 0.838742
vn -0.544537 0.000001 0.838737
vn 0.568505 0.000000 0.822680
vn 0.568505 0.000000 0.822680
vn 0.544529 -0.000001 0.838742
vn 0.544536 -0.000001 0.838737
vn -0.027504 -0.028228 0.999223
vn 0.027503 -0.028227 0.999223
vn -0.000000 0.000000 1.000000
vn -0.000000 0.000000 1.000000
vn 0.027504 0.028228 0.999223
vn -0.027502 0.028227 0.999223
vn -0.000000 0.000000 1.000000
vn -0.000000 0.000000 1.000000
vn -0.189623 -0.195182 0.962262
vn -0.189634 0.195187 0.962258
vn 0.189634 -0.195189 0.962258
vn 0.189622 0.195180 0.962262
vn 0.000000 0.000008 1.000000
vn 0.000000 0.000008 1.000000
vn 0.000000 0.000008 1.000000
vn 0.000000 0.000008 1.000000
vn 0.000000 -0.000008 1.000000
vn 0.000000 -0.000008 1.000000
vn 0.000000 -0.000008 1.000000
vn 0.000000 -0.000008 1.000000
vn 0.000008 0.000000 1.000000
vn 0.000008 0.000000 1.000000
vn 0.000008 0.000000 1.000000
vn 0.000008 0.000000 1.000000
vn -0.000008 0.000000 1.000000
vn -0.000008 0.000000 1.000000
vn -0.000008 0.000000 1.000000
vn -0.000008 0.000000 1.000000
vn 0.000000 0.995471 0.095064
vn 0.000000 0.995471 0.095064
vn 0.000000 0.995471 0.095064
vn 0.000000 0.995471 0.095064
vn 0.000000 -0.995471 0.095062
vn 0.000000 -0.995471 0.095062
vn 0.000000 -0.995471 0.095062
vn 0.000000 -0.995471 0.095062
vn 0.995253 0.000000 0.097317
vn 0.995253 0.000000 0.097317
vn 0.995254 0.000000 0.097317
vn 0.995254 0.000000 0.097317
vn -0.995253 0.000000 0.097317
vn -0.995253 0.000000 0.097317
vn -0.995254 0.000000 0.097317
vn -0.995254 0.000000 0.097317
vn 0.000000 -1.000000 0.000000
vn 0.000000 -1.000000 0.000000
vn 0.000000 -0.998784 0.049311
vn 0.000000 -0.998784 0.049311
vn 0.000000 1.000000 0.000000
vn 0.000000 1.000000 0.000000
vn 0.000000 0.998784 0.049307
vn 0.000000 0.998784 0.049307
vn -1.000000 0.000000 0.000000
vn -1.000000 0.000000 0.000000
vn -0.998784 0.000000 0.049307
vn -0.998784 0.000000 0.049307
vn 1.000000 0.000000 0.000000
vn 1.000000 0.000000 0.000000
vn 0.998784 0.000000 0.049307
vn 0.998784 0.000000 0.049307
vn -0.056287 -0.057648 0.996749
vn 0.056287 -0.057648 0.996749
vn 0.000000 0.000000 1.000000
vn -0.000000 0.000000 1.000000
vn 0.056287 0.057648 0.996749
vn -0.056287 0.057648 0.996749
vn -0.000000 0.000000 1.000000
vn 0.000000 0.000000 1.000000
vn -0.923879 0.000000 0.382684
vn -0.923879 0.000000 0.382684
vn -0.382683 0.000000 0.923880
vn -0.382683 0.000000 0.923880
vn 0.000000 -0.382676 0.923883
vn 0.000000 -0.382676 0.923883
vn 0.000000 -0.923874 0.382698
vn 0.000000 -0.923874 0.382698
vn 0.000000 0.923887 0.382666
vn 0.000000 0.923887 0.382666
vn 0.000000 0.382663 0.923888
vn 0.000000 0.382663 0.923888
vn 0.382683 0.000000 0.923880
vn 0.382683 0.000000 0.923880
vn 0.923879 0.000000 0.382684
vn 0.923879 0.000000 0.382684
s off
g picture_frame
usemtl initialShadingGroup
f 3/39/1 4/2/2 6/51/3 5/4/4
f 7/50/5 8/6/6 2/43/7 1/8/8
f 2/7/9 8/49/10 6/3/11 4/38/12
f 7/5/13 1/42/14 3/1/15 5/52/16
f 9/55/17 10/53/18 14/11/19 13/12/20
f 12/65/21 11/56/22 15/15/23 16/16/24
f 11/56/25 9/55/26 13/12/27 15/15/28
f 10/53/29 12/54/30 16/64/31 14/11/32
s 1
f 1/8/33 2/43/34 20/17/35 17/41/36
f 4/2/37 3/39/38 23/19/39 26/37/40
f 3/1/41 1/42/42 17/18/43 23/40/44
f 2/7/45 4/38/46 26/20/47 20/44/48
f 19/21/49 22/22/50 10/10/51 9/9/52
f 28/23/53 25/24/54 11/14/55 12/13/56
f 25/24/54 19/21/49 9/9/52 11/14/55
f 22/22/50 28/23/53 12/13/56 10/10/51
f 17/18/43 18/47/57 24/48/58 23/40/44
f 18/47/57 19/21/49 25/24/54 24/48/58
f 19/21/49 18/25/57 21/46/59 22/22/50
f 18/25/57 17/41/36 20/17/35 21/46/59
f 23/19/39 24/26/58 27/45/60 26/37/40
f 24/26/58 25/24/54 28/23/53 27/45/60
f 22/22/50 21/27/59 27/28/60 28/23/53
f 21/27/59 20/44/48 26/20/47 27/28/60
s off
f 13/12/61 14/11/62 30/59/63 29/61/64
f 16/16/65 15/15/66 31/62/67 32/60/68
f 15/15/69 13/12/70 29/61/71 31/62/72
f 14/11/73 16/64/74 32/63/75 30/59/76
f 33/30/77 34/57/78 38/58/79 37/34/80
f 36/32/81 35/31/82 39/35/83 40/36/84
f 35/31/85 33/30/86 37/34/87 39/35/88
f 34/29/89 36/32/90 40/36/91 38/33/92
s 7
f 29/66/93 30/67/94 44/74/95 41/68/96
s 8
f 32/73/97 31/69/98 47/72/99 50/70/100
s 9
f 31/69/101 29/71/102 41/83/103 47/72/104
s 10
f 30/67/105 32/73/106 50/70/107 44/74/108
s 11
f 43/79/109 46/75/110 34/82/111 33/76/112
f 52/81/113 49/77/114 35/80/115 36/78/116
f 49/77/114 43/79/109 33/76/112 35/80/115
f 46/75/110 52/81/113 36/78/116 34/82/111
s 9
f 41/83/103 42/86/117 48/90/118 47/72/104
s 11
f 42/85/119 43/79/109 49/77/114 48/89/120
f 43/79/109 42/85/121 45/88/122 46/75/110
s 7
f 42/84/123 41/68/96 44/74/95 45/87/124
s 8
f 47/72/99 48/90/125 51/92/126 50/70/100
s 11
f 48/89/127 49/77/114 52/81/113 51/91/128
f 46/75/110 45/88/129 51/91/130 52/81/113
s 10
f 45/87/131 44/74/108 50/70/107 51/92/132
